<svg width="25" height="24" viewBox="0 0 25 24" fill="none" xmlns="http://www.w3.org/2000/svg">
<g id="Frame">
<path id="Vector" d="M18.9 21C18.9 18.8783 18.0572 16.8434 16.5569 15.3431C15.0566 13.8429 13.0218 13 10.9 13M10.9 13C8.77829 13 6.74346 13.8429 5.24317 15.3431C3.74288 16.8434 2.90002 18.8783 2.90002 21M10.9 13C13.6614 13 15.9 10.7614 15.9 8C15.9 5.23858 13.6614 3 10.9 3C8.1386 3 5.90002 5.23858 5.90002 8C5.90002 10.7614 8.1386 13 10.9 13ZM22.9 20C22.9 16.63 20.9 13.5 18.9 12C19.5574 11.5068 20.0831 10.8591 20.4306 10.1143C20.778 9.36945 20.9365 8.55047 20.892 7.7298C20.8475 6.90913 20.6014 6.11209 20.1755 5.4092C19.7496 4.70631 19.1569 4.11926 18.45 3.7" stroke="url(#paint0_linear_162_1216)" stroke-width="1.5" stroke-linecap="round" stroke-linejoin="round"/>
</g>
<defs>
<linearGradient id="paint0_linear_162_1216" x1="3.0458" y1="14.8682" x2="22.2855" y2="14.58" gradientUnits="userSpaceOnUse">
<stop stop-color="#B7D712"/>
<stop offset="1" stop-color="#3E7903"/>
</linearGradient>
</defs>
</svg>
