<svg width="25" height="24" viewBox="0 0 25 24" fill="none" xmlns="http://www.w3.org/2000/svg">
<g id="Frame">
<path id="Vector" d="M18.8999 21C18.8999 18.8783 18.057 16.8434 16.5568 15.3431C15.0565 13.8429 13.0216 13 10.8999 13M10.8999 13C8.77817 13 6.74334 13.8429 5.24305 15.3431C3.74276 16.8434 2.8999 18.8783 2.8999 21M10.8999 13C13.6613 13 15.8999 10.7614 15.8999 8C15.8999 5.23858 13.6613 3 10.8999 3C8.13848 3 5.8999 5.23858 5.8999 8C5.8999 10.7614 8.13848 13 10.8999 13Z" stroke="black" stroke-opacity="0.6" stroke-linecap="round" stroke-linejoin="round"/>
<path id="Vector_2" d="M22.9 20C22.9 16.63 20.9 13.5 18.9 12C19.5574 11.5068 20.0831 10.8591 20.4305 10.1143C20.778 9.36945 20.9365 8.55047 20.892 7.7298C20.8475 6.90913 20.6014 6.11208 20.1754 5.4092C19.7495 4.70631 19.1568 4.11926 18.45 3.7" stroke="black" stroke-opacity="0.6" stroke-linecap="round" stroke-linejoin="round"/>
</g>
</svg>
