<svg width="25" height="24" viewBox="0 0 25 24" fill="none" xmlns="http://www.w3.org/2000/svg">
<g id="Frame">
<path id="Vector" d="M16.1 21V5C16.1 4.46957 15.8893 3.96086 15.5142 3.58579C15.1391 3.21071 14.6304 3 14.1 3H10.1C9.56957 3 9.06087 3.21071 8.68579 3.58579C8.31072 3.96086 8.10001 4.46957 8.10001 5V21M4.10001 7H20.1C21.2046 7 22.1 7.89543 22.1 9V19C22.1 20.1046 21.2046 21 20.1 21H4.10001C2.99544 21 2.10001 20.1046 2.10001 19V9C2.10001 7.89543 2.99544 7 4.10001 7Z" stroke="black" stroke-opacity="0.6" stroke-linecap="round" stroke-linejoin="round"/>
</g>
</svg>
