<svg width="40" height="40" viewBox="0 0 40 40" fill="none" xmlns="http://www.w3.org/2000/svg">
<g id="icons8_male_user 1">
<path id="Vector" d="M20 38.5C9.799 38.5 1.5 30.201 1.5 20C1.5 9.799 9.799 1.5 20 1.5C30.201 1.5 38.5 9.799 38.5 20C38.5 30.201 30.201 38.5 20 38.5Z" fill="white"/>
<path id="Vector_2" d="M20 2C29.925 2 38 10.075 38 20C38 29.925 29.925 38 20 38C10.075 38 2 29.925 2 20C2 10.075 10.075 2 20 2ZM20 1C9.507 1 1 9.507 1 20C1 30.493 9.507 39 20 39C30.493 39 39 30.493 39 20C39 9.507 30.493 1 20 1Z" fill="#2DA7D6"/>
<path id="Vector_3" d="M27.1429 25.214C25.8429 25.214 24.7859 24.156 24.7859 22.857C24.7859 21.558 25.8439 20.5 27.1429 20.5C29.1059 20.5 29.4999 21.038 29.4999 21.905C29.4999 23.319 28.3349 25.214 27.1429 25.214Z" fill="#E8D47B"/>
<path id="Vector_4" d="M27.1429 21C28.9999 21 28.9999 21.481 28.9999 21.905C28.9999 23.139 27.9589 24.715 27.1429 24.715C26.1189 24.715 25.2859 23.882 25.2859 22.858C25.2859 21.834 26.1189 21 27.1429 21ZM27.1429 20C25.5649 20 24.2859 21.279 24.2859 22.857C24.2859 24.435 25.5649 25.714 27.1429 25.714C28.7209 25.714 29.9999 23.483 29.9999 21.905C29.9999 20.327 28.7209 20 27.1429 20Z" fill="#BA9B48"/>
<path id="Vector_5" d="M12.857 25.214C11.665 25.214 10.5 23.319 10.5 21.904C10.5 21.037 10.894 20.499 12.857 20.499C14.157 20.499 15.214 21.556 15.214 22.856C15.214 24.156 14.157 25.214 12.857 25.214Z" fill="#E8D47B"/>
<path id="Vector_6" d="M12.857 21C13.881 21 14.714 21.833 14.714 22.857C14.714 23.881 13.881 24.714 12.857 24.714C12.041 24.714 11 23.139 11 21.904C11 21.481 11 21 12.857 21ZM12.857 20C11.279 20 10 20.327 10 21.905C10 23.483 11.279 25.715 12.857 25.715C14.435 25.715 15.714 24.436 15.714 22.858C15.714 21.28 14.435 20 12.857 20Z" fill="#BA9B48"/>
<g id="Group">
<path id="Vector_7" d="M20 33.5C19.396 33.5 18.828 33.282 18.359 32.87L18.269 32.79L18.152 32.76C14.824 31.916 12.5 28.93 12.5 25.5V16.202C12.5 14.375 13.986 12.889 15.812 12.889H24.187C26.014 12.889 27.5 14.375 27.5 16.202V25.5C27.5 28.93 25.176 31.916 21.848 32.76L21.731 32.79L21.641 32.87C21.172 33.282 20.604 33.5 20 33.5Z" fill="#FFEEA3"/>
<path id="Vector_8" d="M24.187 13.389C25.738 13.389 27 14.651 27 16.202V25.5C27 28.701 24.831 31.487 21.725 32.276L21.492 32.335L21.311 32.494C21.048 32.725 20.608 33 20 33C19.392 33 18.952 32.725 18.689 32.494L18.508 32.335L18.275 32.276C15.169 31.487 13 28.701 13 25.5V16.202C13 14.651 14.262 13.389 15.813 13.389H24.187ZM24.187 12.389H15.812C13.706 12.389 11.999 14.096 11.999 16.202V25.5C11.999 29.237 14.565 32.366 18.028 33.245C18.557 33.709 19.242 34 20 34C20.758 34 21.443 33.709 21.971 33.245C25.434 32.366 28 29.237 28 25.5V16.202C28 14.096 26.293 12.389 24.187 12.389Z" fill="#BA9B48"/>
</g>
<g id="Group_2">
<path id="Vector_9" d="M27.5 23.5V20C27.5 16.266 24.242 15.289 24.209 15.28L23.933 15.201L23.725 15.399C23.705 15.417 21.593 17.357 17.149 17.357C15.999 17.357 12.499 17.357 12.499 21V23.5H12.32C11.884 22.518 10.499 19.168 10.499 16.312C10.499 11.041 14.116 7.5 19.499 7.5C23.338 7.5 24.491 10.085 24.539 10.195L24.669 10.498L25 10.5C27.076 10.5 29.5 11.944 29.5 16.015C29.5 18.638 28.093 22.408 27.663 23.5H27.5Z" fill="#28A9D9"/>
<path id="Vector_10" d="M19.5 8C22.983 8 24.038 10.297 24.077 10.385L24.334 11H25C26.845 11 29 12.313 29 16.015C29 17.551 28.493 19.513 28 21.058V20C28 16.714 25.61 15.161 24.347 14.799L23.8 14.65L23.387 15.032C23.306 15.107 21.365 16.857 17.151 16.857C13.733 16.857 12 18.251 12 21V21.314C11.509 19.892 11 18.009 11 16.311C11 11.34 14.416 8 19.5 8ZM19.5 7C13.681 7 10 10.981 10 16.311C10 19.842 12 24 12 24H13C13 24 13 21.971 13 21C13 18.332 15.024 17.857 17.15 17.857C21.88 17.857 24.072 15.76 24.072 15.76C24.072 15.76 27 16.599 27 20C27 21.069 27 24 27 24H28C28 24 30 19.232 30 16.015C30 11.498 27.123 10 25 10C25 10 23.747 7 19.5 7Z" fill="#66798F"/>
</g>
</g>
</svg>
