<svg width="20" height="20" viewBox="0 0 20 20" fill="none" xmlns="http://www.w3.org/2000/svg">
<g id="Frame">
<path id="Vector" d="M12.0833 1.66675H4.99998C4.55795 1.66675 4.13403 1.84234 3.82147 2.1549C3.50891 2.46746 3.33331 2.89139 3.33331 3.33341V16.6667C3.33331 17.1088 3.50891 17.5327 3.82147 17.8453C4.13403 18.1578 4.55795 18.3334 4.99998 18.3334H15C15.442 18.3334 15.8659 18.1578 16.1785 17.8453C16.4911 17.5327 16.6666 17.1088 16.6666 16.6667V6.25008L12.0833 1.66675Z" stroke="url(#paint0_linear_162_2329)" stroke-width="1.25" stroke-linecap="round" stroke-linejoin="round"/>
<path id="Vector_2" d="M11.6667 1.66675V6.66675H16.6667" stroke="url(#paint1_linear_162_2329)" stroke-width="1.25" stroke-linecap="round" stroke-linejoin="round"/>
<path id="Vector_3" d="M13.3334 10.8333H6.66669" stroke="url(#paint2_linear_162_2329)" stroke-width="1.25" stroke-linecap="round" stroke-linejoin="round"/>
<path id="Vector_4" d="M13.3334 14.1667H6.66669" stroke="url(#paint3_linear_162_2329)" stroke-width="1.25" stroke-linecap="round" stroke-linejoin="round"/>
<path id="Vector_5" d="M8.33335 7.5H6.66669" stroke="url(#paint4_linear_162_2329)" stroke-width="1.25" stroke-linecap="round" stroke-linejoin="round"/>
</g>
<defs>
<linearGradient id="paint0_linear_162_2329" x1="3.43049" y1="12.6558" x2="16.2583" y2="12.5174" gradientUnits="userSpaceOnUse">
<stop stop-color="#B7D712"/>
<stop offset="1" stop-color="#3E7903"/>
</linearGradient>
<linearGradient id="paint1_linear_162_2329" x1="11.7031" y1="4.96346" x2="16.5133" y2="4.89862" gradientUnits="userSpaceOnUse">
<stop stop-color="#B7D712"/>
<stop offset="1" stop-color="#3E7903"/>
</linearGradient>
<linearGradient id="paint2_linear_162_2329" x1="6.71528" y1="11.4926" x2="13.0785" y2="10.9207" gradientUnits="userSpaceOnUse">
<stop stop-color="#B7D712"/>
<stop offset="1" stop-color="#3E7903"/>
</linearGradient>
<linearGradient id="paint3_linear_162_2329" x1="6.71528" y1="14.8261" x2="13.0785" y2="14.2542" gradientUnits="userSpaceOnUse">
<stop stop-color="#B7D712"/>
<stop offset="1" stop-color="#3E7903"/>
</linearGradient>
<linearGradient id="paint4_linear_162_2329" x1="6.67883" y1="8.15934" x2="8.28169" y2="8.12333" gradientUnits="userSpaceOnUse">
<stop stop-color="#B7D712"/>
<stop offset="1" stop-color="#3E7903"/>
</linearGradient>
</defs>
</svg>
