<svg width="25" height="24" viewBox="0 0 25 24" fill="none" xmlns="http://www.w3.org/2000/svg">
<g id="logo-facebook 1">
<path id="Vector" fill-rule="evenodd" clip-rule="evenodd" d="M22.75 12.0632C22.75 6.26479 18.0484 1.56323 12.25 1.56323C6.45156 1.56323 1.75 6.26479 1.75 12.0632C1.75 17.3039 5.58906 21.6478 10.6094 22.4362V15.0993H7.94266V12.0632H10.6094V9.74995C10.6094 7.11886 12.1773 5.66433 14.5755 5.66433C15.7244 5.66433 16.9263 5.86964 16.9263 5.86964V8.45386H15.6016C14.298 8.45386 13.8902 9.26292 13.8902 10.0945V12.0632H16.802L16.337 15.0993H13.8906V22.4371C18.9109 21.6492 22.75 17.3053 22.75 12.0632Z" fill="url(#paint0_linear_162_2403)"/>
</g>
<defs>
<linearGradient id="paint0_linear_162_2403" x1="1.90306" y1="15.3263" x2="22.1055" y2="15.0523" gradientUnits="userSpaceOnUse">
<stop stop-color="#B7D712"/>
<stop offset="1" stop-color="#3E7903"/>
</linearGradient>
</defs>
</svg>
