<svg width="25" height="24" viewBox="0 0 25 24" fill="none" xmlns="http://www.w3.org/2000/svg">
<g id="logo-linkedin 1">
<path id="Vector" d="M21.3205 1.5H3.79437C2.83672 1.5 2 2.18906 2 3.13547V20.7005C2 21.652 2.83672 22.5 3.79437 22.5H21.3153C22.2781 22.5 23 21.6464 23 20.7005V3.13547C23.0056 2.18906 22.2781 1.5 21.3205 1.5ZM8.50953 19.0045H5.50109V9.65063H8.50953V19.0045ZM7.10938 8.22844H7.08781C6.125 8.22844 5.50156 7.51172 5.50156 6.61453C5.50156 5.70094 6.14141 5.00109 7.12578 5.00109C8.11016 5.00109 8.7125 5.69578 8.73406 6.61453C8.73359 7.51172 8.11016 8.22844 7.10938 8.22844ZM19.5045 19.0045H16.4961V13.89C16.4961 12.6647 16.0583 11.8275 14.9698 11.8275C14.1383 11.8275 13.6461 12.39 13.4272 12.938C13.3452 13.1348 13.3231 13.403 13.3231 13.6767V19.0045H10.3147V9.65063H13.3231V10.9523C13.7609 10.3289 14.4448 9.43172 16.0363 9.43172C18.0111 9.43172 19.505 10.7334 19.505 13.5398L19.5045 19.0045Z" fill="url(#paint0_linear_162_2400)"/>
</g>
<defs>
<linearGradient id="paint0_linear_162_2400" x1="2.15306" y1="15.3462" x2="22.3556" y2="15.0738" gradientUnits="userSpaceOnUse">
<stop stop-color="#B7D712"/>
<stop offset="1" stop-color="#3E7903"/>
</linearGradient>
</defs>
</svg>
