<svg width="25" height="24" viewBox="0 0 25 24" fill="none" xmlns="http://www.w3.org/2000/svg">
<g id="logo-youtube 1" clip-path="url(#clip0_162_2410)">
<path id="Vector" d="M24.5925 6.97453C24.5925 4.86516 23.0409 3.16828 21.1238 3.16828C18.5269 3.04687 15.8784 3 13.1719 3H12.3281C9.62814 3 6.97501 3.04687 4.37814 3.16875C2.46564 3.16875 0.914073 4.875 0.914073 6.98437C0.796885 8.65266 0.747198 10.3214 0.75001 11.9902C0.745323 13.6589 0.798448 15.3292 0.909385 17.0011C0.909385 19.1105 2.46095 20.8214 4.37345 20.8214C7.10157 20.948 9.90001 21.0042 12.7453 20.9995C15.5953 21.0089 18.3859 20.9495 21.1172 20.8214C23.0344 20.8214 24.5859 19.1105 24.5859 17.0011C24.6984 15.3277 24.75 13.6589 24.7453 11.9855C24.7559 10.3167 24.705 8.64641 24.5925 6.97453ZM10.4531 16.5886V7.37766L17.25 11.9808L10.4531 16.5886Z" fill="url(#paint0_linear_162_2410)"/>
</g>
<defs>
<linearGradient id="paint0_linear_162_2410" x1="0.92463" y1="14.8685" x2="24.0071" y2="14.4537" gradientUnits="userSpaceOnUse">
<stop stop-color="#B7D712"/>
<stop offset="1" stop-color="#3E7903"/>
</linearGradient>
<clipPath id="clip0_162_2410">
<rect width="24" height="24" fill="white" transform="translate(0.75)"/>
</clipPath>
</defs>
</svg>
