<svg width="25" height="24" viewBox="0 0 25 24" fill="none" xmlns="http://www.w3.org/2000/svg">
<g id="Frame">
<path id="Vector" d="M2.5 21C2.49992 19.4603 2.94413 17.9533 3.77935 16.6599C4.61456 15.3664 5.80527 14.3415 7.2086 13.708C8.61193 13.0746 10.1682 12.8595 11.6908 13.0887C13.2133 13.3178 14.6373 13.9815 15.792 15M19.5 16V22M22.5 19H16.5M15.5 8C15.5 10.7614 13.2614 13 10.5 13C7.73858 13 5.5 10.7614 5.5 8C5.5 5.23858 7.73858 3 10.5 3C13.2614 3 15.5 5.23858 15.5 8Z" stroke="black" stroke-opacity="0.6" stroke-linecap="round" stroke-linejoin="round"/>
</g>
</svg>
