<svg width="24" height="24" viewBox="0 0 24 24" fill="none" xmlns="http://www.w3.org/2000/svg">
<g id="Frame">
<path id="Vector" d="M3.99994 22H19.9999C20.5304 22 21.0391 21.7893 21.4142 21.4142C21.7892 21.0391 21.9999 20.5304 21.9999 20V4C21.9999 3.46957 21.7892 2.96086 21.4142 2.58579C21.0391 2.21071 20.5304 2 19.9999 2H7.99994C7.46951 2 6.9608 2.21071 6.58573 2.58579C6.21065 2.96086 5.99994 3.46957 5.99994 4V20C5.99994 20.5304 5.78923 21.0391 5.41415 21.4142C5.03908 21.7893 4.53037 22 3.99994 22ZM3.99994 22C3.46951 22 2.9608 21.7893 2.58573 21.4142C2.21065 21.0391 1.99994 20.5304 1.99994 20V11C1.99994 9.9 2.89994 9 3.99994 9H5.99994M17.9999 14H9.99994M14.9999 18H9.99994M9.99994 6H17.9999V10H9.99994V6Z" stroke="black" stroke-opacity="0.6" stroke-linecap="round" stroke-linejoin="round"/>
</g>
</svg>
