<svg width="25" height="24" viewBox="0 0 25 24" fill="none" xmlns="http://www.w3.org/2000/svg">
<g id="Frame">
<path id="Vector" d="M16.3 4H18.3C18.8305 4 19.3392 4.21071 19.7143 4.58579C20.0893 4.96086 20.3 5.46957 20.3 6V20C20.3 20.5304 20.0893 21.0391 19.7143 21.4142C19.3392 21.7893 18.8305 22 18.3 22H6.30005C5.76962 22 5.26091 21.7893 4.88584 21.4142C4.51076 21.0391 4.30005 20.5304 4.30005 20V6C4.30005 5.46957 4.51076 4.96086 4.88584 4.58579C5.26091 4.21071 5.76962 4 6.30005 4H8.30005M12.3 11H16.3M12.3 16H16.3M8.30005 11H8.31005M8.30005 16H8.31005M9.30005 2H15.3C15.8523 2 16.3 2.44772 16.3 3V5C16.3 5.55228 15.8523 6 15.3 6H9.30005C8.74776 6 8.30005 5.55228 8.30005 5V3C8.30005 2.44772 8.74776 2 9.30005 2Z" stroke="url(#paint0_linear_162_233)" stroke-width="1.5" stroke-linecap="round" stroke-linejoin="round"/>
</g>
<defs>
<linearGradient id="paint0_linear_162_233" x1="4.41667" y1="15.1868" x2="19.8101" y2="15.0208" gradientUnits="userSpaceOnUse">
<stop stop-color="#B7D712"/>
<stop offset="1" stop-color="#3E7903"/>
</linearGradient>
</defs>
</svg>
