<svg width="72" height="72" viewBox="0 0 72 72" fill="none" xmlns="http://www.w3.org/2000/svg">
<g id="Frame">
<path id="Vector" fill-rule="evenodd" clip-rule="evenodd" d="M8.75 14.625C8.75 11.517 11.27 9 14.375 9H27.875C30.983 9 33.5 11.52 33.5 14.625V28.125C33.5 31.233 30.98 33.75 27.875 33.75H14.375C12.8832 33.75 11.4524 33.1574 10.3975 32.1025C9.34263 31.0476 8.75 29.6168 8.75 28.125V14.625ZM14.375 13.5C14.0766 13.5 13.7905 13.6185 13.5795 13.8295C13.3685 14.0405 13.25 14.3266 13.25 14.625V28.125C13.25 28.746 13.754 29.25 14.375 29.25H27.875C28.1734 29.25 28.4595 29.1315 28.6705 28.9205C28.8815 28.7095 29 28.4234 29 28.125V14.625C29 14.3266 28.8815 14.0405 28.6705 13.8295C28.4595 13.6185 28.1734 13.5 27.875 13.5H14.375ZM38 14.625C38 11.517 40.52 9 43.625 9H57.125C60.23 9 62.75 11.52 62.75 14.625V28.125C62.75 31.233 60.23 33.75 57.125 33.75H43.625C42.1332 33.75 40.7024 33.1574 39.6475 32.1025C38.5926 31.0476 38 29.6168 38 28.125V14.625ZM43.625 13.5C43.3266 13.5 43.0405 13.6185 42.8295 13.8295C42.6185 14.0405 42.5 14.3266 42.5 14.625V28.125C42.5 28.746 43.004 29.25 43.625 29.25H57.125C57.4234 29.25 57.7095 29.1315 57.9205 28.9205C58.1315 28.7095 58.25 28.4234 58.25 28.125V14.625C58.25 14.3266 58.1315 14.0405 57.9205 13.8295C57.7095 13.6185 57.4234 13.5 57.125 13.5H43.625ZM17.75 20.25C17.75 19.6533 17.9871 19.081 18.409 18.659C18.831 18.2371 19.4033 18 20 18H22.25C22.8467 18 23.419 18.2371 23.841 18.659C24.2629 19.081 24.5 19.6533 24.5 20.25V22.5C24.5 23.0967 24.2629 23.669 23.841 24.091C23.419 24.5129 22.8467 24.75 22.25 24.75H20C19.4033 24.75 18.831 24.5129 18.409 24.091C17.9871 23.669 17.75 23.0967 17.75 22.5V20.25ZM47 20.25C47 19.6533 47.2371 19.081 47.659 18.659C48.081 18.2371 48.6533 18 49.25 18H51.5C52.0967 18 52.669 18.2371 53.091 18.659C53.5129 19.081 53.75 19.6533 53.75 20.25V22.5C53.75 23.0967 53.5129 23.669 53.091 24.091C52.669 24.5129 52.0967 24.75 51.5 24.75H49.25C48.6533 24.75 48.081 24.5129 47.659 24.091C47.2371 23.669 47 23.0967 47 22.5V20.25ZM8.75 43.875C8.75 40.767 11.27 38.25 14.375 38.25H27.875C30.983 38.25 33.5 40.77 33.5 43.875V57.375C33.5 60.48 30.98 63 27.875 63H14.375C12.8832 63 11.4524 62.4074 10.3975 61.3525C9.34263 60.2976 8.75 58.8668 8.75 57.375V43.875ZM14.375 42.75C14.0766 42.75 13.7905 42.8685 13.5795 43.0795C13.3685 43.2905 13.25 43.5766 13.25 43.875V57.375C13.25 57.996 13.754 58.5 14.375 58.5H27.875C28.1734 58.5 28.4595 58.3815 28.6705 58.1705C28.8815 57.9595 29 57.6734 29 57.375V43.875C29 43.5766 28.8815 43.2905 28.6705 43.0795C28.4595 42.8685 28.1734 42.75 27.875 42.75H14.375ZM38 40.5C38 39.9033 38.2371 39.331 38.659 38.909C39.081 38.4871 39.6533 38.25 40.25 38.25H42.5C43.0967 38.25 43.669 38.4871 44.091 38.909C44.5129 39.331 44.75 39.9033 44.75 40.5V42.75C44.75 43.3467 44.5129 43.919 44.091 44.341C43.669 44.7629 43.0967 45 42.5 45H40.25C39.6533 45 39.081 44.7629 38.659 44.341C38.2371 43.919 38 43.3467 38 42.75V40.5ZM56 40.5C56 39.9033 56.2371 39.331 56.659 38.909C57.081 38.4871 57.6533 38.25 58.25 38.25H60.5C61.0967 38.25 61.669 38.4871 62.091 38.909C62.5129 39.331 62.75 39.9033 62.75 40.5V42.75C62.75 43.3467 62.5129 43.919 62.091 44.341C61.669 44.7629 61.0967 45 60.5 45H58.25C57.6533 45 57.081 44.7629 56.659 44.341C56.2371 43.919 56 43.3467 56 42.75V40.5ZM17.75 49.5C17.75 48.9033 17.9871 48.331 18.409 47.909C18.831 47.4871 19.4033 47.25 20 47.25H22.25C22.8467 47.25 23.419 47.4871 23.841 47.909C24.2629 48.331 24.5 48.9033 24.5 49.5V51.75C24.5 52.3467 24.2629 52.919 23.841 53.341C23.419 53.7629 22.8467 54 22.25 54H20C19.4033 54 18.831 53.7629 18.409 53.341C17.9871 52.919 17.75 52.3467 17.75 51.75V49.5ZM47 49.5C47 48.9033 47.2371 48.331 47.659 47.909C48.081 47.4871 48.6533 47.25 49.25 47.25H51.5C52.0967 47.25 52.669 47.4871 53.091 47.909C53.5129 48.331 53.75 48.9033 53.75 49.5V51.75C53.75 52.3467 53.5129 52.919 53.091 53.341C52.669 53.7629 52.0967 54 51.5 54H49.25C48.6533 54 48.081 53.7629 47.659 53.341C47.2371 52.919 47 52.3467 47 51.75V49.5ZM38 58.5C38 57.9033 38.2371 57.331 38.659 56.909C39.081 56.4871 39.6533 56.25 40.25 56.25H42.5C43.0967 56.25 43.669 56.4871 44.091 56.909C44.5129 57.331 44.75 57.9033 44.75 58.5V60.75C44.75 61.3467 44.5129 61.919 44.091 62.341C43.669 62.7629 43.0967 63 42.5 63H40.25C39.6533 63 39.081 62.7629 38.659 62.341C38.2371 61.919 38 61.3467 38 60.75V58.5ZM56 58.5C56 57.9033 56.2371 57.331 56.659 56.909C57.081 56.4871 57.6533 56.25 58.25 56.25H60.5C61.0967 56.25 61.669 56.4871 62.091 56.909C62.5129 57.331 62.75 57.9033 62.75 58.5V60.75C62.75 61.3467 62.5129 61.919 62.091 62.341C61.669 62.7629 61.0967 63 60.5 63H58.25C57.6533 63 57.081 62.7629 56.659 62.341C56.2371 61.919 56 61.3467 56 60.75V58.5Z" fill="black"/>
</g>
</svg>
