<svg width="25" height="24" viewBox="0 0 25 24" fill="none" xmlns="http://www.w3.org/2000/svg">
<g id="Frame">
<path id="Vector" d="M14.7 2V8H20.7M12.7 18V12M8.69995 18V17M16.7 18V15M15.2 2H6.69995C6.16952 2 5.66081 2.21071 5.28574 2.58579C4.91066 2.96086 4.69995 3.46957 4.69995 4V20C4.69995 20.5304 4.91066 21.0391 5.28574 21.4142C5.66081 21.7893 6.16952 22 6.69995 22H18.7C19.2304 22 19.7391 21.7893 20.1142 21.4142C20.4892 21.0391 20.7 20.5304 20.7 20V7.5L15.2 2Z" stroke="url(#paint0_linear_162_1660)" stroke-width="1.5" stroke-linecap="round" stroke-linejoin="round"/>
</g>
<defs>
<linearGradient id="paint0_linear_162_1660" x1="4.81657" y1="15.1868" x2="20.21" y2="15.0208" gradientUnits="userSpaceOnUse">
<stop stop-color="#B7D712"/>
<stop offset="1" stop-color="#3E7903"/>
</linearGradient>
</defs>
</svg>
