<svg id="Scaner" xmlns="http://www.w3.org/2000/svg" width="24" height="24" viewBox="0 0 24 24">
  <path id="Path_8587" data-name="Path 8587" d="M0,0H24V24H0Z" fill="none"/>
  <path id="Path_8588" data-name="Path 8588" d="M21,8.75A.75.75,0,0,1,20.25,8V5A1.251,1.251,0,0,0,19,3.75H16a.75.75,0,0,1,0-1.5h3A2.753,2.753,0,0,1,21.75,5V8A.75.75,0,0,1,21,8.75Z" fill="#15171c"/>
  <path id="Path_8589" data-name="Path 8589" d="M3,8.75A.75.75,0,0,1,2.25,8V5A2.753,2.753,0,0,1,5,2.25H8a.75.75,0,0,1,0,1.5H5A1.251,1.251,0,0,0,3.75,5V8A.75.75,0,0,1,3,8.75Z" fill="#15171c"/>
  <path id="Path_8590" data-name="Path 8590" d="M8,21.75H5A2.753,2.753,0,0,1,2.25,19V16a.75.75,0,0,1,1.5,0v3A1.251,1.251,0,0,0,5,20.25H8a.75.75,0,0,1,0,1.5Z" fill="#15171c"/>
  <path id="Path_8591" data-name="Path 8591" d="M19,21.75H16a.75.75,0,0,1,0-1.5h3A1.251,1.251,0,0,0,20.25,19V16a.75.75,0,0,1,1.5,0v3A2.753,2.753,0,0,1,19,21.75Z" fill="#15171c"/>
  <path id="Path_8592" data-name="Path 8592" d="M21,12.75H3a.75.75,0,0,1,0-1.5H21a.75.75,0,0,1,0,1.5Z" fill="#15171c"/>
</svg>
