<svg width="30" height="30" viewBox="0 0 30 30" fill="none" xmlns="http://www.w3.org/2000/svg">
<g id="icons8_image 1">
<path id="Vector" d="M4 5C2.895 5 2 5.895 2 7V23C2 24.105 2.895 25 4 25H26C27.105 25 28 24.105 28 23V7C28 5.895 27.105 5 26 5H4ZM23 8C24.105 8 25 8.895 25 10C25 11.105 24.105 12 23 12C21.895 12 21 11.105 21 10C21 8.895 21.895 8 23 8ZM5 10L9.97266 14.9727L11 16L12.1562 17.1562C12.5782 17.5782 13.2596 17.5743 13.6816 17.1523C14.1046 16.7303 14.1046 16.0441 13.6816 15.6211L12.5293 14.4707L14 13L16.9727 15.9727L19.1562 18.1562C19.5783 18.5782 20.2596 18.5743 20.6816 18.1523C21.1046 17.7303 21.1046 17.0441 20.6816 16.6211L20.5293 16.4707L22 15L25 18V22H5V10Z" fill="url(#paint0_linear_162_702)"/>
</g>
<defs>
<linearGradient id="paint0_linear_162_702" x1="2.1895" y1="18.1868" x2="27.199" y2="17.7486" gradientUnits="userSpaceOnUse">
<stop stop-color="#B7D712"/>
<stop offset="1" stop-color="#3E7903"/>
</linearGradient>
</defs>
</svg>
