<svg width="25" height="24" viewBox="0 0 25 24" fill="none" xmlns="http://www.w3.org/2000/svg">
<g id="Frame">
<path id="Vector" d="M21.4998 5C21.4998 6.65685 17.4704 8 12.4998 8C7.52925 8 3.49982 6.65685 3.49982 5M21.4998 5C21.4998 3.34315 17.4704 2 12.4998 2C7.52925 2 3.49982 3.34315 3.49982 5M21.4998 5V19C21.4998 19.7956 20.5516 20.5587 18.8638 21.1213C17.1759 21.6839 14.8868 22 12.4998 22C10.1129 22 7.82368 21.6839 6.13586 21.1213C4.44803 20.5587 3.49982 19.7956 3.49982 19V5M3.49982 12C3.49982 12.7956 4.44803 13.5587 6.13586 14.1213C7.82368 14.6839 10.1129 15 12.4998 15C14.8868 15 17.1759 14.6839 18.8638 14.1213C20.5516 13.5587 21.4998 12.7956 21.4998 12" stroke="url(#paint0_linear_162_547)" stroke-width="1.5" stroke-linecap="round" stroke-linejoin="round"/>
</g>
<defs>
<linearGradient id="paint0_linear_162_547" x1="3.63101" y1="15.1868" x2="20.9481" y2="14.9767" gradientUnits="userSpaceOnUse">
<stop stop-color="#B7D712"/>
<stop offset="1" stop-color="#3E7903"/>
</linearGradient>
</defs>
</svg>
